# xmcd CD database file
#
# Track frame offsets:
#	150
#	18378
#	44002
#	70176
#	93543
#	117119
#	138348
#	152091
#	170244
#	197420
#	220830
#	245245
#
# Disc length: 3471 seconds
#
# Revision: 0
# Processed by: cddbd v1.5.2PL0 Copyright (c) Steve Scherf et al.
# Submitted via: CDex 1.51
#
DISCID=af0d8d0c
DTITLE=Cornet Chop Suey - Drum Boogie
DYEAR=1900
DGENRE=Jazz
TTITLE0=Drum Boogie
TTITLE1=Just a Closer Walk with Thee
TTITLE2=Honeysuckle Rose
TTITLE3=Moocha De Copa
TTITLE4=Singin' the Blues
TTITLE5=Sweet Georgia Brown
TTITLE6=Oh, Lady be Good
TTITLE7=Bernie's Tune
TTITLE8=Bill Bailey Won't You Please Come Home
TTITLE9=I Can't Get Started
TTITLE10=Bye Bye Blackbird
TTITLE11=Mahogany Hall Stomp
EXTD=
EXTT0=
EXTT1=
EXTT2=
EXTT3=
EXTT4=
EXTT5=
EXTT6=
EXTT7=
EXTT8=
EXTT9=
EXTT10=
EXTT11=
PLAYORDER=
